<svg width="156" height="24" xmlns="http://www.w3.org/2000/svg"><g fill="none"><path d="M7.46 7.698a6.185 6.185 0 014.958 2.429v-2.11h3.395V23.67h-2.438a.962.962 0 01-.687-.286.984.984 0 01-.284-.695V21.56c-.864 1.273-2.712 2.429-4.941 2.429C3.217 23.99 0 20.316 0 15.844c0-4.472 3.217-8.146 7.46-8.146zm.61 3.122c-2.744 0-4.62 2.2-4.62 5.017s1.852 5.016 4.62 5.016c2.767 0 4.62-2.192 4.62-5.01 0-2.816-1.853-5.016-4.62-5.016v-.007zm11.608-2.81h3.43v2.127c.936-1.565 2.695-2.428 4.709-2.428 3.594 0 5.912 2.563 5.912 6.546v9.419h-2.445a.962.962 0 01-.688-.287.984.984 0 01-.283-.695v-7.885c0-2.474-1.241-3.983-3.217-3.983-2.263 0-3.988 1.783-3.988 5.127v7.709h-2.456a.961.961 0 01-.687-.287.984.984 0 01-.283-.695L19.678 8.01zm24.192-.308a6.185 6.185 0 014.959 2.428V.194h3.395v23.487H49.78a.962.962 0 01-.687-.287.984.984 0 01-.284-.695v-1.127C47.944 22.827 46.065 24 43.85 24c-4.242 0-7.459-3.674-7.459-8.146 0-4.472 3.234-8.145 7.477-8.145l.003-.007zm.607 3.129c-2.744 0-4.62 2.2-4.62 5.016 0 2.817 1.852 5.017 4.62 5.017s4.62-2.2 4.62-5.017-1.87-5.016-4.62-5.016zm11.609-2.817h3.395v2.775a4.363 4.363 0 014.081-2.945c.447 0 .892.042 1.33.128v3.546a5.43 5.43 0 00-1.714-.292c-1.958 0-3.721 1.655-3.721 4.802v7.632h-2.445a.962.962 0 01-.687-.287.984.984 0 01-.284-.695V8.007l.045.007zm18.008 15.983c-4.44-.031-8.018-3.691-7.997-8.183.02-4.491 3.63-8.119 8.07-8.109 4.44.01 8.034 3.654 8.034 8.146a8.124 8.124 0 01-2.357 5.8 7.936 7.936 0 01-5.75 2.346zm0-3.2c2.744 0 4.637-2.164 4.637-4.943 0-2.779-1.924-4.943-4.637-4.943-2.713 0-4.674 2.164-4.674 4.943 0 2.78 1.924 4.944 4.674 4.944zM86.656 4.6c-1.255 0-2.273-1.03-2.273-2.3 0-1.27 1.018-2.3 2.273-2.3 1.256 0 2.274 1.03 2.274 2.3 0 1.27-1.018 2.3-2.274 2.3zm-1.69 3.417h3.395V23.67h-2.425a.962.962 0 01-.687-.286.984.984 0 01-.283-.695V8.007v.01zm13.66-.308a6.185 6.185 0 014.958 2.428V.194H107v23.487h-2.445a.962.962 0 01-.688-.287.984.984 0 01-.283-.695v-1.127C102.72 22.827 100.841 24 98.625 24c-4.242 0-7.459-3.674-7.459-8.146 0-4.472 3.234-8.145 7.476-8.145h-.017zm.644 3.122c-2.744 0-4.62 2.2-4.62 5.016 0 2.817 1.852 5.017 4.62 5.017s4.62-2.2 4.62-5.017-1.87-5.016-4.62-5.016z" fill="#000"/><path d="M144.683 17.176c-.964 0-1.745-.761-1.745-1.7 0-.94.781-1.701 1.745-1.701.963 0 1.744.761 1.744 1.7 0 .94-.78 1.701-1.744 1.701m-19.324 0c-.963 0-1.744-.761-1.744-1.7 0-.94.78-1.701 1.744-1.701.963 0 1.744.761 1.744 1.7 0 .94-.78 1.701-1.744 1.701m19.948-10.27l3.51-5.901a.7.7 0 00-.319-.893.737.737 0 00-.944.212l-3.548 5.974a21.886 21.886 0 00-8.976-1.915 22.26 22.26 0 00-8.994 1.87L122.488.302a.737.737 0 00-.945-.213.7.7 0 00-.318.893l3.489 5.902C118.579 10.145 114.549 16.208 114 23h42c-.535-6.787-4.562-12.847-10.696-16.097" fill="#3DDC84"/></g></svg>