<svg width="65" height="32" xmlns="http://www.w3.org/2000/svg"><path d="M.302 31.486h5.375V8.782H.302v22.704zM2.98 5.804c1.684 0 3-1.285 3-2.891C5.98 1.285 4.664 0 2.98 0 1.317 0 0 1.285 0 2.913c0 1.606 1.317 2.891 2.979 2.891zM23.574.064c-9.088 0-14.787 6.147-14.787 15.979C8.787 25.874 14.485 32 23.574 32c9.066 0 14.765-6.126 14.765-15.957C38.34 6.21 32.641.064 23.574.064zm0 4.712c5.547 0 9.088 4.37 9.088 11.267 0 6.875-3.54 11.245-9.088 11.245-5.57 0-9.088-4.37-9.088-11.245 0-6.897 3.518-11.267 9.088-11.267zM40.607 22.79c.237 5.697 4.943 9.21 12.11 9.21C60.25 32 65 28.316 65 22.447c0-4.605-2.677-7.197-9.002-8.632l-3.583-.814c-3.821-.9-5.397-2.099-5.397-4.155 0-2.57 2.375-4.284 5.893-4.284 3.562 0 6.001 1.735 6.26 4.627h5.31C64.353 3.749 59.82.064 52.956.064c-6.779 0-11.593 3.706-11.593 9.189 0 4.412 2.72 7.154 8.462 8.46l4.037.943c3.929.921 5.526 2.206 5.526 4.434 0 2.57-2.612 4.412-6.368 4.412-3.8 0-6.67-1.863-7.015-4.712h-5.397z"/></svg>